<svg id="visual" viewBox="0 0 1000 200" width="1000" height="200" xmlns="http://www.w3.org/2000/svg" xmlns:xlink="http://www.w3.org/1999/xlink" version="1.1"><rect x="0" y="0" width="1000" height="200" fill="#0b1928"></rect><path d="M0 77L23.8 72C47.7 67 95.3 57 143 57.5C190.7 58 238.3 69 286 74.3C333.7 79.7 381.3 79.3 428.8 78C476.3 76.7 523.7 74.3 571.2 73.8C618.7 73.3 666.3 74.7 714 69.3C761.7 64 809.3 52 857 42.7C904.7 33.3 952.3 26.7 976.2 23.3L1000 20L1000 201L976.2 201C952.3 201 904.7 201 857 201C809.3 201 761.7 201 714 201C666.3 201 618.7 201 571.2 201C523.7 201 476.3 201 428.8 201C381.3 201 333.7 201 286 201C238.3 201 190.7 201 143 201C95.3 201 47.7 201 23.8 201L0 201Z" fill="#29598f"></path><path d="M0 55L23.8 53.8C47.7 52.7 95.3 50.3 143 56.3C190.7 62.3 238.3 76.7 286 79.8C333.7 83 381.3 75 428.8 74.2C476.3 73.3 523.7 79.7 571.2 85.5C618.7 91.3 666.3 96.7 714 94.3C761.7 92 809.3 82 857 77.2C904.7 72.3 952.3 72.7 976.2 72.8L1000 73L1000 201L976.2 201C952.3 201 904.7 201 857 201C809.3 201 761.7 201 714 201C666.3 201 618.7 201 571.2 201C523.7 201 476.3 201 428.8 201C381.3 201 333.7 201 286 201C238.3 201 190.7 201 143 201C95.3 201 47.7 201 23.8 201L0 201Z" fill="#15304c"></path><path d="M0 101L23.8 105.5C47.7 110 95.3 119 143 123.8C190.7 128.7 238.3 129.3 286 122.7C333.7 116 381.3 102 428.8 95.3C476.3 88.7 523.7 89.3 571.2 96.7C618.7 104 666.3 118 714 123.8C761.7 129.7 809.3 127.3 857 126.8C904.7 126.3 952.3 127.7 976.2 128.3L1000 129L1000 201L976.2 201C952.3 201 904.7 201 857 201C809.3 201 761.7 201 714 201C666.3 201 618.7 201 571.2 201C523.7 201 476.3 201 428.8 201C381.3 201 333.7 201 286 201C238.3 201 190.7 201 143 201C95.3 201 47.7 201 23.8 201L0 201Z" fill="#0b1928"></path><path d="M0 163L23.8 157.7C47.7 152.3 95.3 141.7 143 138.7C190.7 135.7 238.3 140.3 286 139.3C333.7 138.3 381.3 131.7 428.8 131.2C476.3 130.7 523.7 136.3 571.2 140.5C618.7 144.7 666.3 147.3 714 149.7C761.7 152 809.3 154 857 149.7C904.7 145.3 952.3 134.7 976.2 129.3L1000 124L1000 201L976.2 201C952.3 201 904.7 201 857 201C809.3 201 761.7 201 714 201C666.3 201 618.7 201 571.2 201C523.7 201 476.3 201 428.8 201C381.3 201 333.7 201 286 201C238.3 201 190.7 201 143 201C95.3 201 47.7 201 23.8 201L0 201Z" fill="#15304c"></path><path d="M0 160L23.8 163.5C47.7 167 95.3 174 143 177.3C190.7 180.7 238.3 180.3 286 176.3C333.7 172.3 381.3 164.7 428.8 161.2C476.3 157.7 523.7 158.3 571.2 162C618.7 165.7 666.3 172.3 714 176.5C761.7 180.7 809.3 182.3 857 180C904.7 177.7 952.3 171.3 976.2 168.2L1000 165L1000 201L976.2 201C952.3 201 904.7 201 857 201C809.3 201 761.7 201 714 201C666.3 201 618.7 201 571.2 201C523.7 201 476.3 201 428.8 201C381.3 201 333.7 201 286 201C238.3 201 190.7 201 143 201C95.3 201 47.7 201 23.8 201L0 201Z" fill="#29598f"></path></svg>