<svg id="visual" viewBox="0 0 1000 200" width="1000" height="200" xmlns="http://www.w3.org/2000/svg" xmlns:xlink="http://www.w3.org/1999/xlink" version="1.1"><rect x="0" y="0" width="1000" height="200" fill="#0b1928"></rect><path d="M0 121L13.8 120.8C27.7 120.7 55.3 120.3 83.2 123C111 125.7 139 131.3 166.8 132.2C194.7 133 222.3 129 250 131.3C277.7 133.7 305.3 142.3 333.2 144.2C361 146 389 141 416.8 138.2C444.7 135.3 472.3 134.7 500 133.3C527.7 132 555.3 130 583.2 132C611 134 639 140 666.8 140.7C694.7 141.3 722.3 136.7 750 132.3C777.7 128 805.3 124 833.2 125C861 126 889 132 916.8 132C944.7 132 972.3 126 986.2 123L1000 120L1000 201L986.2 201C972.3 201 944.7 201 916.8 201C889 201 861 201 833.2 201C805.3 201 777.7 201 750 201C722.3 201 694.7 201 666.8 201C639 201 611 201 583.2 201C555.3 201 527.7 201 500 201C472.3 201 444.7 201 416.8 201C389 201 361 201 333.2 201C305.3 201 277.7 201 250 201C222.3 201 194.7 201 166.8 201C139 201 111 201 83.2 201C55.3 201 27.7 201 13.8 201L0 201Z" fill="#a9c5e6"></path><path d="M0 153L13.8 151.8C27.7 150.7 55.3 148.3 83.2 148.2C111 148 139 150 166.8 152C194.7 154 222.3 156 250 155.7C277.7 155.3 305.3 152.7 333.2 150.8C361 149 389 148 416.8 147.7C444.7 147.3 472.3 147.7 500 146.5C527.7 145.3 555.3 142.7 583.2 145.2C611 147.7 639 155.3 666.8 158C694.7 160.7 722.3 158.3 750 156C777.7 153.7 805.3 151.3 833.2 147.8C861 144.3 889 139.7 916.8 137.7C944.7 135.7 972.3 136.3 986.2 136.7L1000 137L1000 201L986.2 201C972.3 201 944.7 201 916.8 201C889 201 861 201 833.2 201C805.3 201 777.7 201 750 201C722.3 201 694.7 201 666.8 201C639 201 611 201 583.2 201C555.3 201 527.7 201 500 201C472.3 201 444.7 201 416.8 201C389 201 361 201 333.2 201C305.3 201 277.7 201 250 201C222.3 201 194.7 201 166.8 201C139 201 111 201 83.2 201C55.3 201 27.7 201 13.8 201L0 201Z" fill="#7f9fc9"></path><path d="M0 168L13.8 169C27.7 170 55.3 172 83.2 171.8C111 171.7 139 169.3 166.8 167.8C194.7 166.3 222.3 165.7 250 166C277.7 166.3 305.3 167.7 333.2 169C361 170.3 389 171.7 416.8 172.8C444.7 174 472.3 175 500 173.5C527.7 172 555.3 168 583.2 165.2C611 162.3 639 160.7 666.8 159.7C694.7 158.7 722.3 158.3 750 157.3C777.7 156.3 805.3 154.7 833.2 154C861 153.3 889 153.7 916.8 154.8C944.7 156 972.3 158 986.2 159L1000 160L1000 201L986.2 201C972.3 201 944.7 201 916.8 201C889 201 861 201 833.2 201C805.3 201 777.7 201 750 201C722.3 201 694.7 201 666.8 201C639 201 611 201 583.2 201C555.3 201 527.7 201 500 201C472.3 201 444.7 201 416.8 201C389 201 361 201 333.2 201C305.3 201 277.7 201 250 201C222.3 201 194.7 201 166.8 201C139 201 111 201 83.2 201C55.3 201 27.7 201 13.8 201L0 201Z" fill="#557bac"></path><path d="M0 184L13.8 183.5C27.7 183 55.3 182 83.2 182.5C111 183 139 185 166.8 184C194.7 183 222.3 179 250 176.7C277.7 174.3 305.3 173.7 333.2 175.3C361 177 389 181 416.8 181.2C444.7 181.3 472.3 177.7 500 177.2C527.7 176.7 555.3 179.3 583.2 181.8C611 184.3 639 186.7 666.8 184.7C694.7 182.7 722.3 176.3 750 175C777.7 173.7 805.3 177.3 833.2 177.3C861 177.3 889 173.7 916.8 172.8C944.7 172 972.3 174 986.2 175L1000 176L1000 201L986.2 201C972.3 201 944.7 201 916.8 201C889 201 861 201 833.2 201C805.3 201 777.7 201 750 201C722.3 201 694.7 201 666.8 201C639 201 611 201 583.2 201C555.3 201 527.7 201 500 201C472.3 201 444.7 201 416.8 201C389 201 361 201 333.2 201C305.3 201 277.7 201 250 201C222.3 201 194.7 201 166.8 201C139 201 111 201 83.2 201C55.3 201 27.7 201 13.8 201L0 201Z" fill="#29598f"></path></svg>